<svg id="Layer_1" xmlns="http://www.w3.org/2000/svg" xmlns:xlink="http://www.w3.org/1999/xlink" viewBox="0 0 165 72" style="enable-background:new 0 0 165 72"><style>.st0{fill:#333}</style><path class="st0" d="M70.5 37.8V43c-.3.3-.6.6-1 .8-.4.2-.7.4-1.1.5-.4.1-.8.2-1.2.2-.4.0-.9.1-1.3.1-.9.0-1.7-.2-2.5-.5-.8-.3-1.4-.8-2-1.4-.6-.6-1-1.2-1.4-2-.3-.8-.5-1.6-.5-2.5.0-.6.1-1.1.2-1.7.1-.5.4-1 .6-1.5.3-.5.6-.9 1-1.3.4-.4.8-.7 1.3-1 .5-.3 1-.5 1.5-.6.5-.1 1.1-.2 1.7-.2.5.0.9.1 1.4.2.4.1.9.3 1.3.4.4.2.8.4 1.2.7.4.3.7.6 1 .9l-.5.5c-.2.2-.3.3-.5.4-.2.1-.4.1-.6.1-.3.0-.6-.1-.9-.3-.3-.2-.7-.4-1.1-.5-.4-.1-.8-.2-1.2-.2-.6.0-1.1.1-1.6.3-.5.2-.9.5-1.3.9-.4.4-.7.8-.9 1.3-.2.5-.3 1-.3 1.6.0.6.1 1.1.3 1.6.2.5.5.9.9 1.3.4.4.8.7 1.3.9.5.2 1 .3 1.6.3.3.0.5.0.8-.1.2.0.5-.1.8-.2.3-.1.5-.2.7-.3V40c-.2.0-.5.0-.7.0-.2.0-.4.0-.6-.1-.2-.1-.3-.2-.4-.4-.1-.2-.2-.5-.2-.9v-.7H70.5z"/><path class="st0" d="M76.5 44.4h-2.3V32h4.6c.6.0 1.1.1 1.6.3.5.2.9.5 1.2.9.3.4.6.8.8 1.3.2.5.3 1 .3 1.5.0.4.0.7-.1 1.1-.1.3-.2.7-.4 1-.2.3-.4.6-.7.8-.3.3-.6.5-1 .7.6.8 1.2 1.6 1.8 2.4.6.8 1.2 1.6 1.8 2.4h-1.8c-.1.0-.3.0-.4-.1-.2-.1-.3-.1-.5-.2-.2-.1-.4-.3-.5-.4-.2-.2-.4-.4-.5-.7l-2.3-3h-1.7V44.4zM79 37.7c.2.0.4.0.6-.1.2-.1.4-.2.5-.4.1-.2.3-.3.4-.5.1-.2.1-.4.1-.6.0-.2.0-.4-.1-.6-.1-.2-.2-.4-.4-.5-.1-.2-.3-.3-.5-.4-.2-.1-.4-.1-.6-.1h-2.5v3.4H79z"/><path class="st0" d="M90.2 32h2l5.4 12.4h-1.4c-.3.0-.6-.1-.9-.2-.3-.2-.5-.4-.6-.7l-.7-1.7h-5.6l-.7 1.7c-.1.1-.1.3-.2.4-.1.1-.2.2-.4.3-.1.1-.3.1-.4.2-.2.0-.3.1-.5.1h-1.4L90.2 32zM89.5 39.5h3.6l-1.6-3.7c-.1-.2-.1-.3-.2-.5.0-.1.0-.3.0-.3.0.1.0.2-.1.3.0.1-.1.3-.1.5L89.5 39.5z"/><path class="st0" d="M104.2 44.4h-2.3v-5.2c0-.2.0-.3-.1-.5-.1-.1-.2-.3-.3-.5L96.9 32h1.7c.4.0.7.1 1 .2.3.1.5.4.7.6l2.4 3.3c.1.1.1.2.2.3.0.1.0.2.1.2.0.0.0-.1.0-.2.0-.1.1-.2.2-.3l2.4-3.3c.2-.3.4-.5.7-.7.3-.1.6-.2 1-.2h1.8l-4.6 6.2c-.1.1-.1.2-.2.3-.1.1-.1.2-.1.2.0.1-.1.2-.1.2.0.1.0.2.0.3V44.4z"/><path class="st0" d="M121.6 38.5v4.8c-.3.3-.6.5-.9.6-.3.2-.7.3-1.1.4-.4.1-.8.2-1.2.2-.4.0-.8.1-1.3.1-.9.0-1.7-.2-2.5-.5-.8-.3-1.4-.8-2-1.4-.6-.6-1-1.2-1.4-2-.3-.8-.5-1.6-.5-2.5.0-.9.2-1.7.5-2.5.3-.8.8-1.4 1.4-2 .6-.6 1.2-1 2-1.4.8-.3 1.6-.5 2.5-.5.9.0 1.7.2 2.4.5.7.3 1.4.8 2 1.3l-.1.1c-.1.1-.2.2-.3.2-.1.1-.3.1-.4.1-.2.0-.4-.1-.6-.2-.4-.3-.9-.5-1.4-.7-.5-.2-1-.2-1.6-.2-.5.0-.9.1-1.4.2-.4.1-.9.3-1.3.5-.4.2-.7.5-1.1.8-.3.3-.6.7-.8 1.1-.2.4-.4.8-.5 1.3-.1.4-.2.9-.2 1.4.0.5.1.9.2 1.4.1.4.3.9.5 1.3.2.4.5.7.8 1.1.3.3.7.6 1.1.8.4.2.8.4 1.3.5.5.1.9.2 1.4.2.6.0 1.2-.1 1.7-.2.6-.2 1.1-.4 1.6-.7v-3h-1.1c-.2.0-.3.0-.4-.1-.1-.1-.2-.1-.3-.2-.1-.1-.2-.2-.2-.3.0-.1-.1-.3-.1-.4v0H121.6z"/><path class="st0" d="M126.5 44.4h-1.1V32h4.3c.5.0.9.1 1.4.3.4.2.8.4 1.1.7.3.3.6.7.7 1.1.2.4.3.9.3 1.3.0.4-.1.8-.2 1.2-.1.4-.3.8-.6 1.1-.3.3-.6.6-.9.8-.4.2-.7.3-1.2.4l4.1 5.5h-.5c-.6.0-1-.2-1.3-.7L129 39h-2.5V44.4zM126.5 33.1v4.8h3.3c.3.0.6-.1.9-.2.3-.1.5-.3.8-.5.2-.2.4-.5.5-.8.1-.3.2-.6.2-.9.0-.3-.1-.6-.2-.9-.1-.3-.3-.5-.5-.8-.2-.2-.5-.4-.8-.5-.3-.1-.6-.2-.9-.2H126.5z"/><path class="st0" d="M138.3 44.4h-1.1V32h1.1V44.4z"/><path class="st0" d="M142.5 44.4V32h4.6c.6.0 1.1.1 1.6.2.5.1 1 .4 1.5.6.5.3.9.6 1.3 1 .4.4.7.8 1 1.3.3.5.5.9.6 1.5.1.5.2 1.1.2 1.6.0.6-.1 1.1-.2 1.6-.1.5-.4 1-.6 1.5-.3.5-.6.9-1 1.3-.4.4-.8.7-1.3 1-.5.3-.9.5-1.5.6-.5.1-1.1.2-1.6.2H142.5zM147.1 43.3c.7.0 1.4-.1 2-.4.6-.3 1.2-.6 1.6-1.1.5-.5.8-1 1.1-1.6.3-.6.4-1.3.4-2 0-.7-.1-1.4-.4-2-.3-.6-.6-1.2-1.1-1.6-.5-.5-1-.8-1.6-1.1-.6-.3-1.3-.4-2-.4h-3.5v10.2h3.5z"/><path class="st0" d="M161.1 33.7c-.1-.1-.2-.2-.3-.3-.1-.1-.2-.1-.3-.2-.1-.1-.2-.1-.4-.1-.1.0-.3-.1-.6-.1-.3.0-.7.1-1 .2-.3.1-.6.3-.8.5-.2.2-.4.4-.5.7-.1.3-.2.5-.2.8.0.3.0.6.1.8.1.2.2.4.4.5.2.2.5.3.8.4.3.1.7.3 1.2.5.3.1.5.2.7.3.2.1.4.2.6.2.2.1.4.2.5.3.2.1.3.2.5.3.4.3.7.7.9 1.1.2.4.2.9.2 1.5.0.5-.1 1-.3 1.5-.2.4-.5.8-.9 1.1-.4.3-.8.5-1.3.7-.5.2-1 .2-1.6.2-1.1.0-2-.3-2.7-1-.2-.2-.4-.4-.5-.5-.1-.2-.3-.3-.3-.5l.1-.1c.2-.1.4-.2.5-.2.1.0.3.0.4.1.1.0.2.1.3.2.2.2.5.4.6.5.2.1.4.2.5.3.2.1.3.1.5.1.2.0.3.0.5.0.3.0.7.0 1-.1.3-.1.7-.2.9-.4.3-.2.5-.5.7-.8.2-.3.3-.7.3-1.1.0-.5-.1-.9-.2-1.1-.1-.3-.3-.5-.6-.7-.2-.2-.5-.3-.9-.4-.3-.1-.7-.3-1.1-.4-.5-.2-.9-.4-1.3-.5-.4-.2-.7-.4-1-.6-.3-.2-.5-.5-.7-.8-.2-.3-.2-.8-.2-1.3.0-.5.1-.9.3-1.3.2-.4.5-.7.8-1 .3-.3.7-.5 1.1-.6.4-.2.8-.2 1.3-.2.4.0.7.0 1 .1.3.1.6.2.8.4.2.1.5.3.7.5.2.2.4.4.5.5l-.3.2c-.1.1-.1.1-.2.1-.1.0-.2.0-.3.0C161.4 33.8 161.3 33.8 161.1 33.7z"/><path class="st0" d="M49.8 33h-23.2v4h8.6v6.6h-8.6v0c-.2.0-.5.0-.7.0-1.3.0-2.6-.3-3.7-.7-1.7-.7-3.2-1.9-4.2-3.4-1-1.5-1.6-3.3-1.6-5.3.0-1.3.3-2.6.7-3.7.7-1.7 1.9-3.2 3.4-4.2 1.5-1 3.3-1.6 5.3-1.6 1.3.0 2.6.3 3.7.7.8.4 1.6.8 2.3 1.4h16.8c-.2-.7-.5-1.3-.7-2-1.8-4.3-4.9-8-8.7-10.5-3.8-2.6-8.4-4.1-13.4-4.1-3.3.0-6.5.7-9.3 1.9-4.3 1.8-8 4.9-10.5 8.7C3.5 24.5 2 29.1 2 34.1c0 3.3.7 6.5 1.9 9.3 1.8 4.3 4.9 8 8.7 10.5C16.4 56.5 21 58 26 58c.2.0.4.0.6.0h23.2V33zM35.2 54h-7.9c-.3.0-.6.0-.9.0h-.7v0c-2.7.0-5.2-.6-7.5-1.6-3.6-1.5-6.7-4.1-8.8-7.3-2.2-3.2-3.4-7-3.4-11.2.0-2.8.6-5.4 1.6-7.8 1.5-3.6 4.1-6.7 7.3-8.8C18 15.3 21.8 14 26 14c2.8.0 5.4.6 7.8 1.6 3.6 1.5 6.6 4 8.8 7.2h-9.3c-2.1-1.4-4.6-2.2-7.3-2.2-1.9.0-3.6.4-5.2 1.1-2.4 1-4.5 2.7-5.9 4.9-1.4 2.1-2.3 4.7-2.3 7.5.0 1.9.4 3.6 1.1 5.2 1 2.4 2.7 4.5 4.9 5.9 2.1 1.5 4.7 2.3 7.5 2.3.1.0.1.0.2.0v0h9.1V54zM45.9 54.1h-6.7v0c0 0 0 0 0 0h0v-6.5h6.7v6.5zM39.2 43.6V37h6.7v6.6H39.2z"/></svg>